# xmcd
#
# Track frame offsets: 
#        150
#        16270
#        31051
#        45577
#        70852
#        90176
#        107345
#        124514
#        138599
#        151833
#        164396
#
# Disc length: 2388 seconds
#
# Revision: 0
# Processed by: cddbd v1.5.1PL0 Copyright (c) Steve Scherf et al.
# Submitted via: ExactAudioCopy v0.95a3
#
DISCID=7609520b
DTITLE=Shawn Allen - Backroad Therapy
DYEAR=2003
DGENRE=
TTITLE0=Time And Place
TTITLE1=Heaven in a Honky Tonk
TTITLE2=Backroad Therapy
TTITLE3=Lay Your Burdens Down
TTITLE4=Highway
TTITLE5=You And Me
TTITLE6=Walk On My Heart
TTITLE7=Honky Tonk Heroes
TTITLE8=Whiskey And Heroes
TTITLE9=Night Spot
TTITLE10=Sweet On ME
EXTD=
EXTT0=
EXTT1=
EXTT2=
EXTT3=
EXTT4=
EXTT5=
EXTT6=
EXTT7=
EXTT8=
EXTT9=
EXTT10=
PLAYORDER=
